<?xml version="1.0" standalone="no"?>
<!DOCTYPE svg PUBLIC "-//W3C//DTD SVG 20010904//EN"
 "http://www.w3.org/TR/2001/REC-SVG-20010904/DTD/svg10.dtd">
<svg version="1.0" xmlns="http://www.w3.org/2000/svg"
 width="600.000000pt" height="600.000000pt" viewBox="0 0 600.000000 600.000000"
 preserveAspectRatio="xMidYMid meet">
<metadata>
Created by potrace 1.15, written by Peter Selinger 2001-2017
</metadata>
<g transform="translate(0.000000,600.000000) scale(0.100000,-0.100000)"
fill="#000000" stroke="none">
<path d="M924 4646 c-18 -8 -35 -19 -38 -25 -4 -5 -12 -8 -19 -5 -10 4 -13
-18 -14 -90 -1 -53 3 -98 8 -102 5 -3 7 -15 3 -27 -6 -20 -5 -21 7 -4 13 17
16 16 54 -3 37 -19 58 -20 357 -20 l318 0 6 -27 c3 -16 9 -39 14 -53 5 -14 23
-72 40 -130 18 -58 36 -117 42 -132 5 -15 7 -31 4 -37 -3 -5 -1 -11 5 -13 7
-2 12 -18 13 -35 0 -17 3 -29 6 -27 5 5 51 -140 55 -171 1 -11 8 -33 17 -50
16 -32 68 -196 73 -230 2 -11 26 -89 54 -173 28 -84 53 -166 56 -184 3 -17 15
-56 26 -87 62 -175 92 -287 83 -304 -4 -7 -3 -8 1 -4 11 9 58 -142 50 -161 -3
-7 -1 -11 4 -8 11 7 23 -52 14 -67 -3 -5 -1 -7 5 -3 6 4 17 -16 27 -51 43
-153 90 -291 107 -316 43 -61 -16 -57 1078 -57 674 1 1000 4 1000 11 0 6 -10
8 -23 4 -21 -6 -21 -6 -3 9 81 65 72 195 -17 244 -30 16 -101 17 -922 20
l-891 2 -18 58 c-10 31 -25 75 -32 97 -7 22 -20 64 -28 93 l-15 52 852 2
c1005 2 906 1 901 10 -5 8 49 48 64 48 6 0 14 5 18 12 5 7 2 9 -9 5 -13 -5
-13 0 3 41 10 26 24 62 30 80 7 17 16 32 20 32 4 0 11 7 14 16 4 10 2 13 -6 8
-8 -5 -9 -2 -3 12 4 10 14 38 23 61 8 24 18 40 23 37 5 -3 7 1 4 8 -5 14 28
111 36 104 2 -2 5 7 6 21 0 14 8 42 16 62 9 20 23 57 33 83 10 25 22 44 26 42
4 -3 5 1 3 8 -7 16 40 146 47 132 3 -5 3 -3 2 4 -3 12 14 66 62 189 29 75 32
168 7 216 -9 18 -17 37 -18 42 0 6 -4 10 -10 10 -5 0 -22 8 -36 18 -15 10 -42
22 -60 27 -21 6 -498 10 -1249 10 l-1216 0 -17 65 c-10 36 -15 71 -11 77 4 7
3 8 -4 4 -7 -4 -14 4 -18 21 -3 15 -10 39 -15 53 -5 14 -7 35 -5 48 3 12 1 20
-4 17 -12 -7 -23 32 -14 47 4 7 3 9 -1 5 -11 -10 -57 143 -50 163 4 8 3 11 -1
7 -8 -7 -46 85 -47 115 -1 9 -4 16 -7 16 -19 -2 -23 4 -10 13 13 9 12 10 -2 5
-10 -3 -30 1 -45 9 -40 21 -792 21 -839 1z m2206 -1211 c9 -11 9 -23 -4 -57
-18 -49 -36 -154 -36 -211 0 -78 -54 -53 -100 46 l-26 58 -29 -61 c-16 -33
-37 -68 -47 -77 -16 -15 -20 -15 -33 -2 -20 20 -55 162 -58 234 -2 55 0 60 20
63 24 4 27 -2 43 -98 17 -102 18 -102 61 -17 29 56 44 77 59 77 19 0 21 -5 46
-105 l8 -30 7 41 c13 73 29 123 45 139 19 19 28 19 44 0z m164 -50 c23 -25 39
-73 32 -97 -3 -7 -7 -25 -10 -40 -10 -46 -53 -88 -91 -88 -47 0 -64 8 -80 41
-31 59 -9 156 44 196 28 22 80 16 105 -12z m211 1 c47 -47 42 -133 -12 -196
-55 -65 -153 -20 -153 70 0 117 99 192 165 126z m-531 -1132 c23 -22 20 -86
-5 -118 -35 -44 -112 -29 -119 24 -5 37 2 63 25 85 28 29 76 33 99 9z"/>
<path d="M2712 1901 c-58 -15 -124 -54 -169 -100 -24 -24 -43 -47 -43 -53 0
-5 -5 -6 -12 -2 -6 4 -8 3 -5 -2 3 -6 -3 -30 -15 -54 -15 -34 -20 -67 -21
-132 0 -75 3 -94 27 -142 15 -31 39 -70 52 -86 14 -16 25 -32 25 -35 -1 -3 0
-4 2 -4 1 1 33 -16 72 -37 65 -36 75 -38 155 -39 47 0 103 3 125 7 22 4 44 7
48 7 5 1 5 6 2 11 -3 6 -2 10 4 10 5 0 36 24 68 53 32 30 64 53 71 51 7 -1 8
0 2 3 -5 2 -10 9 -10 14 0 6 5 7 12 3 7 -4 8 -3 4 5 -4 6 -4 17 1 24 39 51 45
194 12 282 -27 73 -111 162 -184 194 -54 24 -170 35 -223 22z"/>
<path d="M3790 1901 c-19 -4 -54 -17 -76 -29 -23 -12 -45 -18 -49 -14 -5 4 -5
2 -2 -4 7 -12 -20 -29 -38 -25 -5 2 -7 -1 -3 -4 4 -4 -7 -26 -25 -49 -63 -80
-71 -103 -71 -201 0 -111 5 -166 15 -159 6 3 25 -36 21 -43 -1 -2 18 -21 43
-44 24 -22 43 -46 41 -52 -1 -7 -1 -9 1 -5 2 3 32 -8 65 -25 56 -29 69 -32
157 -32 90 0 100 2 159 34 34 19 79 52 99 75 21 23 41 40 46 38 5 -1 6 2 3 7
-8 12 4 42 14 36 4 -3 7 1 6 8 0 6 5 40 13 75 12 54 12 74 0 135 -7 40 -13 79
-14 89 0 9 -4 20 -8 24 -4 5 -5 0 -2 -11 4 -11 -5 -1 -20 23 -14 23 -31 42
-36 42 -6 0 -8 10 -4 23 4 16 4 18 -3 8 -8 -11 -17 -8 -48 17 -22 17 -56 38
-78 47 -45 19 -155 27 -206 16z"/>
</g>
</svg>
